<svg width="24" height="24" viewBox="0 0 24 24" fill="none" xmlns="http://www.w3.org/2000/svg">
<path d="M9.12499 21.1L0.699988 12.7C0.599988 12.6 0.529321 12.4917 0.487988 12.375C0.445988 12.2583 0.424988 12.1333 0.424988 12C0.424988 11.8667 0.445988 11.7417 0.487988 11.625C0.529321 11.5083 0.599988 11.4 0.699988 11.3L9.12499 2.87499C9.35832 2.64166 9.64999 2.52499 9.99999 2.52499C10.35 2.52499 10.65 2.64999 10.9 2.89999C11.15 3.14999 11.275 3.44166 11.275 3.77499C11.275 4.10833 11.15 4.39999 10.9 4.64999L3.54999 12L10.9 19.35C11.1333 19.5833 11.25 19.8707 11.25 20.212C11.25 20.554 11.125 20.85 10.875 21.1C10.625 21.35 10.3333 21.475 9.99999 21.475C9.66665 21.475 9.37499 21.35 9.12499 21.1Z" fill="black"/>
</svg>
