<svg width="24" height="24" viewBox="0 0 24 24" fill="none" xmlns="http://www.w3.org/2000/svg">
<path d="M7.19999 2.39999C6.56347 2.39999 5.95302 2.65285 5.50293 3.10294C5.05284 3.55302 4.79999 4.16347 4.79999 4.79999V19.2C4.79999 19.8365 5.05284 20.447 5.50293 20.8971C5.95302 21.3471 6.56347 21.6 7.19999 21.6H18.6C18.7591 21.6 18.9117 21.5368 19.0243 21.4243C19.1368 21.3117 19.2 21.1591 19.2 21C19.2 20.8409 19.1368 20.6883 19.0243 20.5757C18.9117 20.4632 18.7591 20.4 18.6 20.4H7.19999C6.88173 20.4 6.5765 20.2736 6.35146 20.0485C6.12642 19.8235 5.99999 19.5183 5.99999 19.2H18C18.3182 19.2 18.6235 19.0736 18.8485 18.8485C19.0736 18.6235 19.2 18.3183 19.2 18V4.79999C19.2 4.16347 18.9471 3.55302 18.497 3.10294C18.047 2.65285 17.4365 2.39999 16.8 2.39999H7.19999ZM8.09999 5.39999H15.9C16.1387 5.39999 16.3676 5.49482 16.5364 5.6636C16.7052 5.83238 16.8 6.0613 16.8 6.29999C16.8 6.53869 16.7052 6.76761 16.5364 6.93639C16.3676 7.10517 16.1387 7.19999 15.9 7.19999H8.09999C7.86129 7.19999 7.63237 7.10517 7.46359 6.93639C7.29481 6.76761 7.19999 6.53869 7.19999 6.29999C7.19999 6.0613 7.29481 5.83238 7.46359 5.6636C7.63237 5.49482 7.86129 5.39999 8.09999 5.39999Z" fill="black" fill-opacity="0.25"/>
</svg>
