<svg width="28" height="28" viewBox="0 0 28 28" fill="none" xmlns="http://www.w3.org/2000/svg">
<path d="M7 3C5.93913 3 4.92172 3.42143 4.17157 4.17157C3.42143 4.92172 3 5.93913 3 7V10.341C3 10.6062 3.10536 10.8606 3.29289 11.0481C3.48043 11.2356 3.73478 11.341 4 11.341C4.26522 11.341 4.51957 11.2356 4.70711 11.0481C4.89464 10.8606 5 10.6062 5 10.341V7C5 6.46957 5.21071 5.96086 5.58579 5.58579C5.96086 5.21071 6.46957 5 7 5H10.343C10.6082 5 10.8626 4.89464 11.0501 4.70711C11.2376 4.51957 11.343 4.26522 11.343 4C11.343 3.73478 11.2376 3.48043 11.0501 3.29289C10.8626 3.10536 10.6082 3 10.343 3H7ZM17.659 3C17.3938 3 17.1394 3.10536 16.9519 3.29289C16.7644 3.48043 16.659 3.73478 16.659 4C16.659 4.26522 16.7644 4.51957 16.9519 4.70711C17.1394 4.89464 17.3938 5 17.659 5H21C21.5304 5 22.0391 5.21071 22.4142 5.58579C22.7893 5.96086 23 6.46957 23 7V10.341C23 10.6062 23.1054 10.8606 23.2929 11.0481C23.4804 11.2356 23.7348 11.341 24 11.341C24.2652 11.341 24.5196 11.2356 24.7071 11.0481C24.8946 10.8606 25 10.6062 25 10.341V7C25 5.93913 24.5786 4.92172 23.8284 4.17157C23.0783 3.42143 22.0609 3 21 3H17.659ZM5 17.659C5 17.3938 4.89464 17.1394 4.70711 16.9519C4.51957 16.7644 4.26522 16.659 4 16.659C3.73478 16.659 3.48043 16.7644 3.29289 16.9519C3.10536 17.1394 3 17.3938 3 17.659V21C3 22.0609 3.42143 23.0783 4.17157 23.8284C4.92172 24.5786 5.93913 25 7 25H10.341C10.6062 25 10.8606 24.8946 11.0481 24.7071C11.2356 24.5196 11.341 24.2652 11.341 24C11.341 23.7348 11.2356 23.4804 11.0481 23.2929C10.8606 23.1054 10.6062 23 10.341 23H7C6.46957 23 5.96086 22.7893 5.58579 22.4142C5.21071 22.0391 5 21.5304 5 21V17.659ZM25 17.659C25 17.3938 24.8946 17.1394 24.7071 16.9519C24.5196 16.7644 24.2652 16.659 24 16.659C23.7348 16.659 23.4804 16.7644 23.2929 16.9519C23.1054 17.1394 23 17.3938 23 17.659V21C23 21.5304 22.7893 22.0391 22.4142 22.4142C22.0391 22.7893 21.5304 23 21 23H17.659C17.3938 23 17.1394 23.1054 16.9519 23.2929C16.7644 23.4804 16.659 23.7348 16.659 24C16.659 24.2652 16.7644 24.5196 16.9519 24.7071C17.1394 24.8946 17.3938 25 17.659 25H21C22.0609 25 23.0783 24.5786 23.8284 23.8284C24.5786 23.0783 25 22.0609 25 21V17.659ZM8.75 13C8.48478 13 8.23043 13.1054 8.04289 13.2929C7.85536 13.4804 7.75 13.7348 7.75 14C7.75 14.2652 7.85536 14.5196 8.04289 14.7071C8.23043 14.8946 8.48478 15 8.75 15H19.25C19.5152 15 19.7696 14.8946 19.9571 14.7071C20.1446 14.5196 20.25 14.2652 20.25 14C20.25 13.7348 20.1446 13.4804 19.9571 13.2929C19.7696 13.1054 19.5152 13 19.25 13H8.75Z" fill="black"/>
</svg>
