<svg width="24" height="24" viewBox="0 0 24 24" fill="none" xmlns="http://www.w3.org/2000/svg">
<path d="M7.2 2.4C6.56348 2.4 5.95303 2.65286 5.50294 3.10295C5.05286 3.55303 4.8 4.16348 4.8 4.8V19.2C4.8 19.8365 5.05286 20.447 5.50294 20.8971C5.95303 21.3471 6.56348 21.6 7.2 21.6H18.6C18.7591 21.6 18.9117 21.5368 19.0243 21.4243C19.1368 21.3117 19.2 21.1591 19.2 21C19.2 20.8409 19.1368 20.6883 19.0243 20.5757C18.9117 20.4632 18.7591 20.4 18.6 20.4H7.2C6.88174 20.4 6.57651 20.2736 6.35147 20.0485C6.12643 19.8235 6 19.5183 6 19.2H18C18.3183 19.2 18.6235 19.0736 18.8485 18.8485C19.0736 18.6235 19.2 18.3183 19.2 18V4.8C19.2 4.16348 18.9471 3.55303 18.4971 3.10295C18.047 2.65286 17.4365 2.4 16.8 2.4H7.2ZM8.1 5.4H15.9C16.1387 5.4 16.3676 5.49482 16.5364 5.66361C16.7052 5.83239 16.8 6.06131 16.8 6.3C16.8 6.5387 16.7052 6.76762 16.5364 6.9364C16.3676 7.10518 16.1387 7.2 15.9 7.2H8.1C7.8613 7.2 7.63239 7.10518 7.4636 6.9364C7.29482 6.76762 7.2 6.5387 7.2 6.3C7.2 6.06131 7.29482 5.83239 7.4636 5.66361C7.63239 5.49482 7.8613 5.4 8.1 5.4Z" fill="#E49527"/>
</svg>
