<svg width="24" height="24" viewBox="0 0 24 24" fill="none" xmlns="http://www.w3.org/2000/svg">
<path d="M4.5 4.5C4.5 3.70435 4.81607 2.94129 5.37868 2.37868C5.94129 1.81607 6.70435 1.5 7.5 1.5C8.29565 1.5 9.05871 1.81607 9.62132 2.37868C10.1839 2.94129 10.5 3.70435 10.5 4.5C10.5 5.29565 10.1839 6.05871 9.62132 6.62132C9.05871 7.18393 8.29565 7.5 7.5 7.5C6.70435 7.5 5.94129 7.18393 5.37868 6.62132C4.81607 6.05871 4.5 5.29565 4.5 4.5ZM14.6685 6.876L14.7315 6.924C15.3679 7.39576 16.1651 7.59663 16.9491 7.48277C17.7331 7.36891 18.4403 6.94956 18.9162 6.31625C19.3922 5.68294 19.5983 4.88708 19.4896 4.10235C19.3809 3.31762 18.9663 2.60774 18.3361 2.12762C17.7059 1.6475 16.9115 1.43612 16.126 1.53963C15.3406 1.64313 14.628 2.0531 14.1437 2.68007C13.6595 3.30705 13.4428 4.10012 13.5412 4.88621C13.6395 5.67231 14.0447 6.3876 14.6685 6.876ZM9.402 9C9.5904 8.64325 9.84883 8.32816 10.1618 8.07359C10.4748 7.81901 10.8359 7.63019 11.2236 7.5184C11.6112 7.40662 12.0174 7.37417 12.4179 7.42301C12.8184 7.47184 13.2049 7.60095 13.5544 7.80262C13.9038 8.00428 14.2089 8.27436 14.4516 8.59668C14.6942 8.91901 14.8694 9.28696 14.9665 9.67854C15.0637 10.0701 15.0808 10.4773 15.017 10.8756C14.9532 11.274 14.8096 11.6554 14.595 11.997C14.1821 12.6542 13.5305 13.1258 12.7772 13.3127C12.0239 13.4996 11.2275 13.3872 10.5552 12.9993C9.88301 12.6113 9.3873 11.9779 9.17225 11.2322C8.9572 10.4864 9.03955 9.68632 9.402 9ZM3.75 9H7.755C7.48841 9.76134 7.43045 10.5801 7.58712 11.3714C7.7438 12.1627 8.10941 12.8977 8.646 13.5H8.25C7.47666 13.4999 6.72217 13.7388 6.08983 14.184C5.45748 14.6292 4.97817 15.2589 4.7175 15.987C4.214 15.7847 3.74257 15.5104 3.318 15.1725C2.19 14.265 1.5 12.924 1.5 11.25C1.5 10.6533 1.73705 10.081 2.15901 9.65901C2.58097 9.23705 3.15326 9 3.75 9ZM15.75 13.5C16.5231 13.5 17.2774 13.7389 17.9095 14.1841C18.5416 14.6293 19.0206 15.259 19.281 15.987C19.791 15.7785 20.2635 15.507 20.682 15.1725C21.81 14.265 22.5 12.924 22.5 11.25C22.5 10.6533 22.2629 10.081 21.841 9.65901C21.419 9.23705 20.8467 9 20.25 9H16.245C16.41 9.4695 16.5 9.975 16.5 10.5C16.5014 11.6072 16.0932 12.6757 15.354 13.5H15.75ZM17.8305 16.392C17.94 16.656 18 16.947 18 17.25C18 18.924 17.3115 20.265 16.182 21.1725C15.0705 22.065 13.5795 22.5 12 22.5C10.4205 22.5 8.9295 22.065 7.818 21.1725C6.69 20.265 6 18.924 6 17.25C5.99921 16.9543 6.05687 16.6614 6.16966 16.388C6.28245 16.1147 6.44815 15.8663 6.65724 15.6572C6.86633 15.4482 7.11469 15.2825 7.38803 15.1697C7.66137 15.0569 7.9543 14.9992 8.25 15H15.75C16.1957 14.9999 16.6313 15.1321 17.0017 15.38C17.3721 15.6278 17.6606 15.98 17.8305 16.392Z" fill="#E49527"/>
</svg>
