<svg width="24" height="24" viewBox="0 0 24 24" fill="none" xmlns="http://www.w3.org/2000/svg">
<path d="M3 22.5H2.25C1.85218 22.5 1.47064 22.342 1.18934 22.0607C0.908035 21.7794 0.75 21.3978 0.75 21V5.25C0.75 4.85218 0.908035 4.47064 1.18934 4.18934C1.47064 3.90804 1.85218 3.75 2.25 3.75H3C3.39782 3.75 3.77936 3.90804 4.06066 4.18934C4.34196 4.47064 4.5 4.85218 4.5 5.25V21C4.5 21.3978 4.34196 21.7794 4.06066 22.0607C3.77936 22.342 3.39782 22.5 3 22.5ZM11.25 8.25C11.25 7.85218 11.092 7.47064 10.8107 7.18934C10.5294 6.90804 10.1478 6.75 9.75 6.75H6.75C6.35218 6.75 5.97064 6.90804 5.68934 7.18934C5.40804 7.47064 5.25 7.85218 5.25 8.25V9.5625C5.25 9.61223 5.26975 9.65992 5.30492 9.69508C5.34008 9.73025 5.38777 9.75 5.4375 9.75H11.0625C11.1122 9.75 11.1599 9.73025 11.1951 9.69508C11.2302 9.65992 11.25 9.61223 11.25 9.5625V8.25ZM5.25 21C5.25 21.3978 5.40804 21.7794 5.68934 22.0607C5.97064 22.342 6.35218 22.5 6.75 22.5H9.75C10.1478 22.5 10.5294 22.342 10.8107 22.0607C11.092 21.7794 11.25 21.3978 11.25 21V19.5938C11.25 19.5689 11.2401 19.545 11.2225 19.5275C11.205 19.5099 11.1811 19.5 11.1562 19.5H5.34375C5.31889 19.5 5.29504 19.5099 5.27746 19.5275C5.25988 19.545 5.25 19.5689 5.25 19.5938V21Z" fill="#E49527"/>
<path d="M11.1562 11.25H5.34375C5.29197 11.25 5.25 11.292 5.25 11.3438V17.9062C5.25 17.958 5.29197 18 5.34375 18H11.1562C11.208 18 11.25 17.958 11.25 17.9062V11.3438C11.25 11.292 11.208 11.25 11.1562 11.25Z" fill="#E49527"/>
<path d="M15 22.5H13.5C13.1022 22.5 12.7206 22.342 12.4393 22.0607C12.158 21.7794 12 21.3978 12 21V3C12 2.60218 12.158 2.22064 12.4393 1.93934C12.7206 1.65804 13.1022 1.5 13.5 1.5H15C15.3978 1.5 15.7794 1.65804 16.0607 1.93934C16.342 2.22064 16.5 2.60218 16.5 3V21C16.5 21.3978 16.342 21.7794 16.0607 22.0607C15.7794 22.342 15.3978 22.5 15 22.5ZM23.2448 20.8805L21.7341 4.94297C21.6647 4.20937 20.94 3.67734 20.1155 3.75656L18.6225 3.89719C17.798 3.97547 17.1858 4.63359 17.2552 5.36719L18.7659 21.3047C18.8353 22.0383 19.56 22.5703 20.3845 22.4911L21.8775 22.3505C22.702 22.2722 23.3142 21.6141 23.2448 20.8805Z" fill="#E49527"/>
</svg>
